<svg width="159" height="50" viewBox="0 0 159 50" fill="none" xmlns="http://www.w3.org/2000/svg">
<path d="M36.2954 17.9303H34.8331C34.791 17.9303 34.749 17.9304 34.7071 17.9307C34.4136 17.0962 34.0893 16.2857 33.7389 15.5187C31.9207 11.5387 29.6983 9.25436 27.6337 9.25436H27.6386C25.9731 9.25436 24.5194 10.7207 23.5881 11.9327C24.6608 14.7655 25.4547 17.8262 25.8709 20.7125C25.3975 21.0569 24.9511 21.4288 24.5338 21.8255C24.0869 18.0721 22.9275 13.8494 21.3313 10.3566C19.0399 5.36908 16.2411 2.50623 13.6196 2.50623C10.9981 2.50623 8.18443 5.36908 5.90789 10.3566C3.8383 14.8853 2.50292 20.6359 2.50292 25.01H2.48321C2.49512 30.9217 7.01923 35.8187 12.8459 36.2269V33.5237C12.7901 33.4907 12.7387 33.4505 12.6932 33.404L7.874 28.5262C7.68651 28.3364 7.61329 28.0598 7.68191 27.8006C7.75054 27.5414 7.95059 27.3389 8.2067 27.2694C8.46282 27.2 8.73608 27.2741 8.92357 27.4638L12.8657 31.4539V29.5137V26.0723L10.1161 23.2893C9.82622 22.9959 9.82622 22.5203 10.1161 22.2269C10.4059 21.9336 10.8758 21.9336 11.1656 22.2269L12.8657 23.9476V19.005C12.8657 18.5918 13.1966 18.2569 13.6048 18.2569C14.013 18.2569 14.3439 18.5918 14.3439 19.005V25.7531V27.6983L17.5222 24.4813C17.8121 24.1879 18.282 24.1879 18.5718 24.4813C18.8616 24.7747 18.8616 25.2503 18.5718 25.5436L14.3439 29.8229V36.2269C16.5466 36.0864 18.6574 35.2822 20.4049 33.9177C20.4664 33.8201 20.5495 33.7391 20.6467 33.6806V35.567C18.7814 36.8444 16.6077 37.5907 14.3538 37.7232V41.394C15.6711 40.518 17.2124 40.05 18.7886 40.0474C19.1031 40.0474 19.4174 40.0657 19.7298 40.1022L19.8086 40.0274C20.0744 39.811 20.3546 39.6166 20.6467 39.4451V41.7796C18.4114 41.128 15.9855 41.7032 14.2651 43.3242C14.0481 43.5277 13.7321 43.5807 13.4619 43.4589C11.98 42.806 10.282 42.8901 8.8701 43.6863C7.45823 44.4825 6.49404 45.8997 6.26267 47.5187H20.6467V49H5.44469C5.03648 49 4.70555 48.6651 4.70555 48.2519C4.70385 46.1964 5.62779 44.2523 7.21541 42.9706C8.80303 41.6889 10.8812 41.2095 12.8607 41.6683V37.7232C6.20887 37.3201 1.01412 31.7498 1 25.005C1 20.3666 2.36002 14.5062 4.54294 9.72319C7.11022 4.09726 10.3329 1 13.6048 1C16.8767 1 20.0944 4.09726 22.6617 9.72319C22.7603 9.93932 22.8572 10.1571 22.9524 10.3766C24.4356 8.63591 26.0125 7.75312 27.6386 7.75312C30.3438 7.75312 32.99 10.2918 35.0891 14.8803C35.5438 15.8772 35.9462 16.8953 36.2954 17.9303Z" fill="#00BFA5" stroke="#00BFA5"/>
<path d="M36.5617 48.9607C29.6102 48.9607 25.3472 44.6069 25.3472 35.7827V35.0052C25.3472 25.6756 30.4936 22.0216 37.061 22.0216C39.8262 22.0216 41.8233 22.6047 43.398 23.4599V26.0255C41.3625 25.2092 39.4422 24.6261 36.9074 24.6261C32.0298 24.6261 28.5733 27.5804 28.5733 34.4999V35.7827C28.5733 42.4689 31.0313 46.3562 36.9458 46.3562C40.1335 46.3562 42.0538 45.4621 43.6668 44.6457V47.2502C41.9386 48.2609 39.5958 48.9607 36.5617 48.9607ZM48.2372 48.5331V20.6999H51.1944V48.5331H48.2372ZM64.7133 48.8829C58.722 48.8829 55.6879 45.19 55.6879 39.1646V38.6204C55.6879 31.8954 59.6053 28.9021 63.9836 28.9021C69.2068 28.9021 71.6648 31.9731 71.6648 37.9596V39.6311H58.6836C58.8372 44.4514 61.1032 46.3173 65.1742 46.3173C67.709 46.3173 69.3989 45.6953 71.1271 44.879V47.0948C69.975 47.9111 67.7858 48.8829 64.7133 48.8829ZM63.9068 31.3123C61.5256 31.3123 58.9908 32.7117 58.6836 37.2598H68.5923C68.5923 33.0616 67.0177 31.3123 63.9068 31.3123ZM80.7286 48.8829C77.2721 48.8829 74.7757 47.0948 74.7757 43.4795C74.7757 40.0976 76.9264 38.3094 80.575 37.8818L85.7214 37.2598V35.2384C85.7214 32.2452 84.4156 31.4678 80.9975 31.4678C79.154 31.4678 77.6562 31.7399 76.4656 32.0897V29.9517C78.117 29.252 79.9605 28.9021 82.1497 28.9021C86.3359 28.9021 88.6787 30.6514 88.6787 34.5776V48.5331H86.2975L85.9903 46.8615H85.7982C84.9149 47.95 83.3018 48.8829 80.7286 48.8829ZM81.4584 46.5505C83.225 46.5505 84.9149 45.9674 85.7214 45.1511V39.4756L81.3431 39.981C79.0004 40.2142 77.8482 41.186 77.8482 43.4018C77.8482 45.501 79.2692 46.5505 81.4584 46.5505ZM94.2092 48.5331V29.252H97.0128V31.4289H97.2048C98.2802 30.1849 100.354 29.0576 102.505 29.0576C102.927 29.0576 103.465 29.0965 103.657 29.1354V31.8176C103.158 31.7399 102.582 31.701 102.274 31.701C100.354 31.701 98.5106 32.4007 97.1664 33.3725V48.5331H94.2092ZM117.79 48.9607C110.839 48.9607 106.576 44.6069 106.576 35.7827V35.0052C106.576 25.6756 111.722 22.0216 118.29 22.0216C121.055 22.0216 123.052 22.6047 124.627 23.4599V26.0255C122.591 25.2092 120.671 24.6261 118.136 24.6261C113.259 24.6261 109.802 27.5804 109.802 34.4999V35.7827C109.802 42.4689 112.26 46.3562 118.174 46.3562C121.362 46.3562 123.283 45.4621 124.896 44.6457V47.2502C123.167 48.2609 120.825 48.9607 117.79 48.9607ZM135.112 48.8829C131.386 48.8829 129.274 46.9781 129.274 43.2463V29.252H132.231V42.8187C132.231 45.3066 133.114 46.3173 135.918 46.3173C137.954 46.3173 139.643 45.5787 141.218 44.8012V29.252H144.137V48.5331H141.602L141.333 46.7838H141.18C139.451 47.9888 137.416 48.8829 135.112 48.8829ZM155.774 48.7663C152.778 48.7663 150.82 47.4446 150.82 44.1793V31.7399H148.093V29.2909H150.82V24.7038H153.738V29.2909H158.616V31.7399H153.738V43.7128C153.738 45.5787 154.353 46.3173 156.542 46.3173C157.349 46.3173 158.232 46.2007 159 45.9674V47.9888C158.232 48.3387 157.425 48.7663 155.774 48.7663Z" fill="white"/>
</svg>
